<svg width="25" height="24" viewBox="0 0 25 24" fill="none" xmlns="http://www.w3.org/2000/svg">
<path d="M15.6665 16L14.1665 9C15.0665 8.482 15.6665 7.113 15.6665 6C15.6665 5.20435 15.3504 4.44129 14.7878 3.87868C14.2252 3.31607 13.4622 3 12.6665 3C11.8709 3 11.1078 3.31607 10.5452 3.87868C9.98257 4.44129 9.6665 5.20435 9.6665 6C9.6665 7.113 10.2665 8.482 11.1665 9L9.6665 16M15.6665 16H9.6665M15.6665 16L17.9825 16.772C18.1815 16.8383 18.3547 16.9655 18.4775 17.1356C18.6002 17.3058 18.6663 17.5102 18.6665 17.72V20H6.6665V17.721C6.66645 17.511 6.73249 17.3064 6.85526 17.136C6.97803 16.9657 7.1513 16.8383 7.3505 16.772L9.6665 16M8.6665 9H16.6665" stroke="#0B0E0E" stroke-width="2" stroke-linecap="round" stroke-linejoin="round"/>
</svg>
