<svg width="18" height="18" viewBox="0 0 18 18" fill="none" xmlns="http://www.w3.org/2000/svg">
<path d="M1 9C1 13.4183 4.58172 17 9 17V1C4.58172 1 1 4.58172 1 9Z" fill="#0B0E0E"/>
<path fill-rule="evenodd" clip-rule="evenodd" d="M9 1.5C4.85786 1.5 1.5 4.85786 1.5 9C1.5 13.1421 4.85786 16.5 9 16.5V17.5C4.30558 17.5 0.5 13.6944 0.5 9C0.5 4.30558 4.30558 0.5 9 0.5V1.5Z" fill="#FFE794"/>
<path d="M9 17C13.4183 17 17 13.4183 17 9C17 4.58172 13.4183 1 9 1V17Z" fill="white"/>
<path fill-rule="evenodd" clip-rule="evenodd" d="M16.5 9C16.5 4.85786 13.1421 1.5 9 1.5V0.5C13.6944 0.5 17.5 4.30558 17.5 9C17.5 13.6944 13.6944 17.5 9 17.5V16.5C13.1421 16.5 16.5 13.1421 16.5 9Z" fill="#FFE794"/>
<circle cx="9" cy="9" r="8" fill="#FFE794"/>
</svg>
