<svg width="25" height="24" viewBox="0 0 25 24" fill="none" xmlns="http://www.w3.org/2000/svg">
<path d="M3.3335 3V21H21.3335M10.4935 10.6201L12.8335 13.5001M15.4215 13.3282L18.2585 8.74219M11.3335 9C11.3335 10.1046 10.4381 11 9.3335 11C8.22893 11 7.3335 10.1046 7.3335 9C7.3335 7.89543 8.22893 7 9.3335 7C10.4381 7 11.3335 7.89543 11.3335 9ZM21.3335 7C21.3335 8.10457 20.4381 9 19.3335 9C18.2289 9 17.3335 8.10457 17.3335 7C17.3335 5.89543 18.2289 5 19.3335 5C20.4381 5 21.3335 5.89543 21.3335 7ZM16.3335 15C16.3335 16.1046 15.4381 17 14.3335 17C13.2289 17 12.3335 16.1046 12.3335 15C12.3335 13.8954 13.2289 13 14.3335 13C15.4381 13 16.3335 13.8954 16.3335 15Z" stroke="#0B0E0E" stroke-width="2" stroke-linecap="round" stroke-linejoin="round"/>
</svg>
