<svg width="25" height="24" viewBox="0 0 25 24" fill="none" xmlns="http://www.w3.org/2000/svg">
<path d="M18.3335 8C19.1291 8 19.8922 8.31607 20.4548 8.87868C21.0174 9.44129 21.3335 10.2044 21.3335 11C21.3335 11.7956 21.0174 12.5587 20.4548 13.1213C19.8922 13.6839 19.1291 14 18.3335 14M10.3335 8V19C10.3335 19.2652 10.2281 19.5196 10.0406 19.7071C9.85307 19.8946 9.59871 20 9.3335 20H8.3335C8.06828 20 7.81393 19.8946 7.62639 19.7071C7.43885 19.5196 7.3335 19.2652 7.3335 19V14M12.3335 7.99995L16.8575 4.22995C16.989 4.12046 17.1489 4.0507 17.3186 4.02885C17.4882 4.00701 17.6606 4.03398 17.8155 4.1066C17.9704 4.17922 18.1014 4.29449 18.1932 4.4389C18.2849 4.5833 18.3336 4.75087 18.3335 4.92195V17.0779C18.3336 17.249 18.2849 17.4166 18.1932 17.561C18.1014 17.7054 17.9704 17.8207 17.8155 17.8933C17.6606 17.9659 17.4882 17.9929 17.3186 17.971C17.1489 17.9492 16.989 17.8794 16.8575 17.7699L12.3335 13.9999H4.3335C4.06828 13.9999 3.81393 13.8946 3.62639 13.7071C3.43885 13.5195 3.3335 13.2652 3.3335 12.9999V8.99995C3.3335 8.73473 3.43885 8.48038 3.62639 8.29284C3.81393 8.1053 4.06828 7.99995 4.3335 7.99995H12.3335Z" stroke="#0B0E0E" stroke-width="2" stroke-linecap="round" stroke-linejoin="round"/>
</svg>
