<svg xmlns="http://www.w3.org/2000/svg" viewBox="0 0 2750.05 2272.97"><defs><style>.cls-1{opacity:0.25;}.cls-2{fill:#390075;}.cls-3{fill:#fff;}.cls-4{opacity:0.3;}.cls-5{opacity:0.2;}.cls-6{fill:#ffbe06;}.cls-7{fill:#f72872;}.cls-8{fill:#d7dcf0;}.cls-9{fill:#ffdc9c;}.cls-10{opacity:0.55;}</style></defs><g id="Layer_2" data-name="Layer 2"><g id="Layer_1-2" data-name="Layer 1"><g class="cls-1"><path class="cls-2" d="M2737.72,499.4a122.65,122.65,0,0,0-70.52-62.9l-236.07-82.38-8.44-92.06a123.46,123.46,0,0,0-134.23-111.67l-349.34,32.05L1607.89,66.86a123.46,123.46,0,0,0-157.24,75.89L1420.19,230l-249,22.83A123.61,123.61,0,0,0,1059.54,387.1l63.66,694-229.62,658a123.46,123.46,0,0,0,75.89,157.24l236.07,82.38,8.45,92.06a123.63,123.63,0,0,0,122.85,112.19c3.76,0,7.56-.17,11.37-.52l349.35-32,331.22,115.57A123.41,123.41,0,0,0,2186,2190.17l30.46-87.29,249-22.84a123.46,123.46,0,0,0,111.67-134.22l-63.66-694,229.61-658A122.65,122.65,0,0,0,2737.72,499.4Z"/></g><path class="cls-3" d="M2403.94,2002.46l-176.1,16.13-716.11,65.7-225.06,20.63a105.7,105.7,0,0,1-114.9-95.58l-4.15-45.13-69.27-755.52-81-883.13a105.72,105.72,0,0,1,95.58-114.9l344.7-31.61,291.13-26.7,481.45-44.16a105.73,105.73,0,0,1,114.9,95.58L2360,365.61l92.54,1009.18,47,512.77A105.72,105.72,0,0,1,2403.94,2002.46Z"/><path class="cls-2" d="M1276.82,2108.09a108.42,108.42,0,0,1-107.76-98.5L1014.65,325.81a108.44,108.44,0,0,1,98-117.86L2230,105.48c59.5-5.47,112.34,38.53,117.86,98l154.4,1683.79a108.44,108.44,0,0,1-98,117.86L1286.92,2107.63Q1281.85,2108.1,1276.82,2108.09ZM2239.93,110.47q-4.69,0-9.47.43L1113.19,213.37a103,103,0,0,0-93.11,111.94l154.4,1683.79a103,103,0,0,0,111.94,93.11l1117.27-102.46a103,103,0,0,0,93.12-111.94L2342.4,204A103.19,103.19,0,0,0,2239.93,110.47Z"/><path class="cls-2" d="M1276.82,2123.16A123.49,123.49,0,0,1,1154.09,2011L999.64,327.2A123.6,123.6,0,0,1,1111.31,193L2228.57,90.49a123.46,123.46,0,0,1,134.22,111.67l154.45,1683.76a123.62,123.62,0,0,1-111.67,134.23h0L1288.31,2122.63C1284.47,2123,1280.63,2123.16,1276.82,2123.16ZM2240,125.53q-4.08,0-8.19.37L1114.55,228.39a88,88,0,0,0-79.5,95.56L1189.5,2007.71a87.89,87.89,0,0,0,95.57,79.51l1117.26-102.48,1.62,17.7-1.62-17.7a88,88,0,0,0,79.5-95.57L2327.38,205.41A87.91,87.91,0,0,0,2240,125.53Z"/><g class="cls-4"><path class="cls-2" d="M2452.49,1374.79l-224.65,643.8-716.11,65.7-344.11-120.08-69.27-755.52L1462.73,164.44a105.65,105.65,0,0,1,134.58-64.95L2360,365.61Z"/></g><path class="cls-3" d="M2666.39,528,2109.32,2124.41a105.63,105.63,0,0,1-134.58,65L915.44,1819.73a105.65,105.65,0,0,1-65-134.58L1407.57,88.71a105.64,105.64,0,0,1,134.57-65l1059.3,369.64A105.65,105.65,0,0,1,2666.39,528Z"/><path class="cls-2" d="M2009.66,2198.05a108.36,108.36,0,0,1-35.81-6.12L914.55,1822.29a108.5,108.5,0,0,1-66.63-138L1405,87.81a108.5,108.5,0,0,1,138-66.62l1059.3,369.63A108.36,108.36,0,0,1,2669,528.87L2111.89,2125.31a108.57,108.57,0,0,1-102.23,72.74ZM1507.42,20.57a103.11,103.11,0,0,0-97.28,69L853.06,1686.05a103.07,103.07,0,0,0,63.28,131.11l1059.3,369.64a102.92,102.92,0,0,0,131.11-63.29L2663.82,527.07l2.57.9-2.57-.9A102.91,102.91,0,0,0,2600.54,396L1541.25,26.32A102.61,102.61,0,0,0,1507.42,20.57Z"/><g class="cls-5"><path class="cls-2" d="M1904.85,748.73a46.81,46.81,0,0,0-49.34-24.92l-499.19,78a16.74,16.74,0,0,0-5.2,1.71L102,1455.79A129.1,129.1,0,0,0,47.32,1630l72.76,139.35a128.91,128.91,0,0,0,174.23,54.69L1543.42,1171.8a16.57,16.57,0,0,0,4.37-3.29l349.32-365.06A46.79,46.79,0,0,0,1904.85,748.73Z"/></g><g class="cls-4"><path class="cls-2" d="M2653.55,523,2096.48,2119.47a105.64,105.64,0,0,1-134.58,65L902.6,1814.79a105.59,105.59,0,0,1-70.37-89.71,105.16,105.16,0,0,0,48.7,35.07l1059.3,369.64a105.65,105.65,0,0,0,134.58-64.95L2631.88,468.39a104.51,104.51,0,0,0,5.43-44.86A105.37,105.37,0,0,1,2653.55,523Z"/></g><path class="cls-2" d="M2009.66,2213.12a123.86,123.86,0,0,1-40.78-6.95L909.57,1836.53a123.62,123.62,0,0,1-75.89-157.25L1390.75,82.85A123.46,123.46,0,0,1,1548,7L2607.3,376.6a123.61,123.61,0,0,1,75.9,157.25L2126.13,2130.28a123.68,123.68,0,0,1-116.47,82.84ZM1507.25,35.58a88.06,88.06,0,0,0-82.93,59L867.25,1691a88,88,0,0,0,54,112L1980.6,2172.59h0a87.91,87.91,0,0,0,112-54L2649.63,522.13a88,88,0,0,0-54-112L1536.28,40.53A88,88,0,0,0,1507.25,35.58Z"/><path class="cls-2" d="M1993.52,622.13a188.08,188.08,0,0,1,46.52-18,149.57,149.57,0,0,1,50.85-2.86c34.16,3.8,66.83,20.45,89.52,46.29a138.08,138.08,0,0,1,26.07,43.76,155.57,155.57,0,0,1,9.33,48.72c1,32.67-6.9,64.18-20.74,92.43-14.15,28.52-33.91,52.21-55.73,72.84s-45.77,37.79-69.92,53.56c-48.34,31.4-98,57.37-138.92,92.87q-7.62,6.66-14.83,13.69c-4.66,4.63-9.11,9.41-13.26,14.41-8.23,10-15.26,20.82-20,32.13a89,89,0,0,0-5.13,17.2,67.54,67.54,0,0,0-.57,17.19,57.4,57.4,0,0,0,13.75,30.7c15.73,17.6,41.69,27.19,67.17,28.41,3.21.29,6.42,0,9.63.07s6.38-.52,9.58-.74c3.17-.46,6.27-1,9.46-1.58l10.12-2.35c6.92-1.62,14.08-3.36,21.78-4.4s15.91-1.55,24.56.21,17.23,5.85,23.62,12.53a46.57,46.57,0,0,1,12.1,23.46c3.05,16.81-.49,32.8-7.27,47-7.17,14-16.5,25.08-24.85,36.22s-15.89,22.12-19.51,34.29c-7.52,24.4-.91,53.52,17.3,72.08s47.31,26.86,72.94,19.82h0a4.54,4.54,0,0,1,2.54,8.71c-28.78,8.86-61.76,1-83.88-20.06-22.14-21.29-31.1-54.56-23.11-84.56,4-15.2,12.42-28.1,20.62-39.79s16.72-22.8,22-34.22c5.06-11.29,7.09-24.46,4.59-35.47a27.14,27.14,0,0,0-7.39-13.47,25.22,25.22,0,0,0-13.52-6.46c-10.71-1.74-23.75,1.59-37.18,5.29l-10.42,2.78c-3.75.8-7.57,1.63-11.37,2.31-3.83.42-7.65,1-11.5,1.28s-7.7.5-11.54.31a137.51,137.51,0,0,1-45.48-8.3c-14.63-5.44-28.83-13.64-40.25-25.7a84.4,84.4,0,0,1-21.81-44.75,94.92,94.92,0,0,1-.06-25,116.73,116.73,0,0,1,6.11-23.57c11.43-29.9,32.46-53.49,53.81-73.27,43.48-40.16,94-68.55,139.17-100.25,22.61-15.85,44.13-32.61,62.82-51.43a256.89,256.89,0,0,0,25.55-29.74,184.32,184.32,0,0,0,19.3-32.69c10.25-22.74,15.4-47.91,13.79-71.74s-10.32-45.94-25.61-61.88a90.59,90.59,0,0,0-58.6-27.74,97.19,97.19,0,0,0-33.24,3.06,135.15,135.15,0,0,0-31.82,13.6l-.62.36a27.24,27.24,0,0,1-27.21-47.19Z"/><path class="cls-6" d="M1503,1097,253.84,1749.23a112.24,112.24,0,0,1-151.5-47.56L29.58,1562.33a112.24,112.24,0,0,1,47.56-151.5L1326.25,758.57l12.69-2,377.29-58.94,109.21-17.06c28.88-4.5,47,30.23,26.82,51.35l-76.42,79.87-264,275.92Z"/><path class="cls-7" d="M375.77,1685.56l-121.93,63.67a112.24,112.24,0,0,1-151.5-47.56L29.58,1562.33a112.24,112.24,0,0,1,47.56-151.5l121.92-63.67Z"/><rect class="cls-8" x="280.56" y="1297.54" width="120.7" height="381.76" transform="translate(-650.23 326.85) rotate(-27.57)"/><path class="cls-2" d="M374.62,1689.24l-1.27-2.41L195.39,1346l111.82-58.39,1.26,2.41,178,340.81ZM202.74,1348.31l174.18,333.58,102.17-53.35L304.9,1295Z"/><path class="cls-9" d="M1511.86,1087.7c-29.1-32.68-81.87,2.47-109.2-39.19-27-43.59,31.36-77.36,8.85-119.13C1390.1,887,1329,915.64,1308.69,868.56c-18.56-46.23,40.44-69.44,30.25-112l377.29-58.94,109.21-17.06c28.88-4.5,47,30.23,26.82,51.35l-76.42,79.87Z"/><path class="cls-2" d="M1511.79,1091.71l-2-2.2c-12.86-14.45-30.67-14.83-49.53-15.23-21.93-.47-44.61-1-59.9-24.27-14.71-23.75-5.56-44.51,3.29-64.6,8.08-18.34,15.72-35.66,5.44-54.74-9.81-19.4-28.39-23-48.06-26.88-21.54-4.22-43.81-8.58-54.86-34.15-10.42-25.93,2.14-44.83,14.29-63.09,10.44-15.71,20.31-30.54,15.8-49.35l-.68-2.87L1825,677.87a33.31,33.31,0,0,1,29.21,55.92Zm-169.6-332.9c3.45,19.75-7,35.5-17.17,50.75-11.89,17.89-23.12,34.78-13.8,58,9.89,22.87,29.8,26.77,50.88,30.9,20.09,3.93,40.87,8,51.84,29.7,11.51,21.36,3,40.73-5.28,59.46-8.66,19.66-16.84,38.22-3.68,59.47,13.68,20.86,34,21.29,55.43,21.75,18.31.4,37.22.8,51.46,14.92L1850.29,730c10.17-10.64,9-23.58,4.55-32.14s-14.45-16.9-29-14.64Z"/><g class="cls-4"><path class="cls-2" d="M1503,1097,253.84,1749.23a112.28,112.28,0,0,1-151.5-47.56l-46.78-89.58a112.25,112.25,0,0,0,151.51,47.56l1237.71-646.31a78.38,78.38,0,0,0,20.3-15.22h0l395.39-291.84a29.73,29.73,0,0,1-8.21,25.63l-76.42,79.87-264,275.92Z"/></g><g class="cls-10"><path class="cls-3" d="M1859.1,721a31,31,0,0,0-12.87-.63L1737,737.43l-377.29,58.94-12.69,2L97.92,1450.64a112.24,112.24,0,0,0-47.55,151.5l-20.79-39.81a112.24,112.24,0,0,1,47.56-151.5L1326.25,758.57l12.69-2,377.29-58.94,109.21-17.06C1849.68,676.77,1866.38,700.73,1859.1,721Z"/></g><path class="cls-2" d="M202.08,1778.81a129.25,129.25,0,0,1-114.67-69.34L14.65,1570.13a129.28,129.28,0,0,1,54.69-174.24L1318.45,743.64a16.74,16.74,0,0,1,5.2-1.71l499.19-78a47.43,47.43,0,0,1,41.59,79.63l-349.31,365.07a16.92,16.92,0,0,1-4.37,3.28L261.64,1764.16A128.33,128.33,0,0,1,202.08,1778.81Zm1129.51-1004-1246.66,651a95.53,95.53,0,0,0-40.42,128.77l72.76,139.35a95.54,95.54,0,0,0,128.78,40.42l1246.65-651,347.39-363A13.75,13.75,0,0,0,1828,697.2ZM1503,1097h0Z"/><path class="cls-2" d="M1511.86,1104.54a16.78,16.78,0,0,1-12.58-5.64c-8.35-9.37-20.37-10.1-39.29-10.51-23.19-.49-52-1.11-71.41-30.64-18.82-30.37-7.18-56.8,2.18-78,8.26-18.74,12.61-30,5.93-42.35-6.56-13-18.24-15.79-38.35-19.72-22.77-4.46-51.11-10-65.11-42.41-13.32-33.17,2.66-57.2,15.5-76.51,10.48-15.76,16.76-26,13.83-38.25a16.84,16.84,0,0,1,32.76-7.84c6.49,27.1-7.39,48-18.54,64.74-12.14,18.26-18.7,29.34-12.45,44.9,6.47,15,19,18.1,40.48,22.31,21.23,4.15,47.64,9.32,61.73,37.19,14.62,27.11,3.76,51.73-5,71.52-8.84,20.07-13.41,32.12-4.6,46.35,9,13.65,21.81,14.6,43.73,15.07,20.14.43,45.2,1,63.73,21.78a16.84,16.84,0,0,1-12.58,28Z"/><path class="cls-2" d="M1775.84,811.78q-55.71-43.57-59.61-114.16l109.21-17.06c28.88-4.5,47,30.23,26.82,51.35Z"/><path class="cls-2" d="M375.77,1702.41a16.88,16.88,0,0,1-14.93-9.05L184.13,1355a16.84,16.84,0,0,1,7.14-22.73l107-55.87a16.85,16.85,0,0,1,22.73,7.13l176.7,338.4a16.84,16.84,0,0,1-7.13,22.73l-107,55.88A16.89,16.89,0,0,1,375.77,1702.41Zm-154-348.12L382.9,1662.84,460,1622.56,298.92,1314Z"/><path class="cls-2" d="M1775.83,828.62a16.78,16.78,0,0,1-10.37-3.58c-40.93-32-63.16-74.58-66-126.48a16.84,16.84,0,1,1,33.63-1.87c2.36,42.37,19.75,75.67,53.17,101.82a16.85,16.85,0,0,1-10.39,30.11Z"/></g></g></svg>