<svg width="641" height="640" viewBox="0 0 641 640" fill="none" xmlns="http://www.w3.org/2000/svg">
<path fill-rule="evenodd" clip-rule="evenodd" d="M2.46713 279.921C1.23357 289.543 0 304.469 0 309.404C0 310.691 0.152294 311.774 0.318716 311.965L0.370073 325.317C0.370073 334.075 0.740136 344.745 1.17188 349.001C4.8109 385.268 13.1375 416.97 27.8786 450.338C29.2323 453.413 30.1863 455.442 30.8938 456.71C30.8212 457.432 40.2035 475.157 44.4082 482.226C65.3171 517.259 93.4425 549.085 124.405 572.893C126.998 574.897 128.54 575.95 129.446 576.307C133.356 580.213 150.106 591.335 164.866 599.662C205.697 622.729 254.546 636.977 301.607 639.691C309.933 640.184 332.939 640.061 341.081 639.506C374.572 637.162 408.804 629.391 438.903 617.302C462.525 607.803 495.832 589.238 502.37 582.022C504.405 579.74 505.515 577.766 506.44 574.62C508.538 567.836 507.982 565.368 501.63 552.416C498.669 546.372 496.202 541.437 496.079 541.437C495.955 541.437 492.748 543.781 488.986 546.618C453.274 573.14 411.641 591.088 368.836 598.428C350.148 601.635 343.486 602.19 320.11 602.19C296.734 602.19 290.073 601.635 271.384 598.428C235.673 592.322 198.172 577.766 168.505 558.522L163.116 555.003L157.403 550.936C147.226 543.658 144.944 542.547 139.578 542.177C133.718 541.807 131.375 542.671 121.876 548.839C117.559 551.676 113.92 553.773 113.735 553.65C113.611 553.465 118.545 545.323 124.775 535.516C135.137 519.233 183.061 437.818 185.713 431.958C187.687 427.641 186.885 422.337 183.616 418.759C182.321 417.341 161.535 403.401 160.302 403.093C159.993 403.031 147.041 424.742 131.498 451.325C116.017 477.97 103.064 499.804 102.694 499.928C101.892 500.113 93.2574 488.949 85.7943 477.909C79.0714 467.978 72.0401 456.013 66.9208 445.774C65.7381 443.442 64.7479 441.687 63.9875 440.556L64.0047 440.544C64.0116 440.539 64.0174 440.535 64.0221 440.532C64.1454 440.47 63.0969 437.818 61.6783 434.61C48.9109 406.423 40.7694 374.104 38.1789 341.353C37.5004 332.41 37.8088 299.165 38.6106 292.134L38.8022 290.601C38.8378 290.538 38.8573 290.472 38.8573 290.407C38.8573 290.309 38.8641 290.172 38.8773 290L38.9807 289.173L38.9575 289.174C39.4651 284.578 41.7723 270.034 42.8664 264.563C54.4619 207.696 81.5387 158.23 123.418 117.399C137.234 103.953 148.645 94.6397 164.804 83.9077C202.181 58.928 247.762 42.83 293.527 38.5125C306.788 37.2173 333.309 37.2173 346.385 38.4508C366.801 40.3628 389.745 45.1121 408.31 51.2799C416.637 54.0554 430.946 59.6065 434.339 61.3335C435.345 61.8823 435.808 62.0242 435.981 61.7841C437.609 62.8269 440.608 64.3793 445.811 66.9462C470.05 78.7884 490.219 92.666 511.621 112.156C524.265 123.629 541.474 142.996 549.739 155.084L552.267 158.785L552.356 158.733L556.091 164.336C575.705 193.695 590.014 228.42 597.292 264.255C599.143 273.322 601.178 287.446 601.672 295.033C601.857 298.116 602.165 301.2 602.35 302.002C602.387 302.173 602.43 302.324 602.48 302.455L602.535 317.545C602.659 339.996 601.178 356.834 597.354 375.399C589.829 412.406 576.26 445.034 555.413 476.367C548.628 486.544 537.526 501.346 536.663 501.346C536.416 501.346 520.38 474.208 501.013 441.087C478.452 402.449 468.505 385.795 465.551 381.769C465.888 381.541 466.055 381.41 466.041 381.382C465.918 381.074 448.771 351.653 427.924 316.003C404.288 275.614 393.693 257.86 390.141 252.722C390.318 252.648 390.424 252.513 390.424 252.351C390.424 251.488 319.185 130.043 318.753 130.228C318.507 130.29 290.135 178.769 255.656 237.918C221.24 297.13 192.868 345.732 192.621 345.979C192.066 346.534 184.85 335.247 178.003 323.158C171.157 311.131 167.086 307.985 158.205 307.985C154.319 307.985 152.654 308.293 150.433 309.404C140.873 314.091 137.173 324.7 141.675 334.322C145.622 342.772 156.293 360.288 165.483 373.426L169.862 379.717L169.967 379.648L170.294 380.087C174.488 385.946 205.944 419.746 211.618 424.495C240.669 448.858 271.569 462.119 307.775 465.758C308.946 465.881 312.894 466.066 316.595 466.066C319.297 466.134 321.02 466.109 322.024 465.981C323.048 466.398 325.595 466.191 331.891 465.573C370.501 461.687 403.068 445.836 431.07 417.217C437.237 410.864 438.841 409.507 439.458 410.186C439.89 410.618 454.877 436.091 472.764 466.807C495.338 505.417 509.278 528.547 518.036 541.869L530.618 561.113L536.416 555.808C597.293 499.866 633.806 423.817 639.666 340.674C640.467 328.709 640.036 299.782 638.802 288.865C638.47 285.931 638.274 284.264 638.026 283.301C638.152 283.019 638.168 282.559 638.062 281.957C637.985 281.55 637.805 280.431 637.553 278.876L637.552 278.87L637.54 278.791L637.536 278.77C637.179 276.56 636.685 273.502 636.15 270.361C629.859 231.381 615.734 193.448 594.393 158.107C589.978 150.793 585.424 143.925 583.062 140.906L583.292 140.775L576.754 132.078C556.585 105.187 534.812 83.3526 509.339 64.2323C496.159 54.4016 476.18 41.5878 470.567 39.2462C469.257 38.2619 465.751 36.4466 458.208 32.7147C419.659 13.6562 382.775 3.5409 341.143 0.456988C328.437 -0.468187 299.016 0.0869217 286.804 1.44384C227.901 7.98174 175.043 28.829 127.982 64.0473C104.853 81.3789 80.3668 105.989 63.2202 129.118C30.099 173.835 9.25174 225.459 2.46713 279.921ZM357.819 270.022C357.749 270.007 357.7 269.976 357.672 269.929C357.364 269.498 348.606 254.51 338.182 236.623C327.758 218.736 319.062 204.057 318.877 204.057C318.692 204.057 300.682 234.835 278.848 272.458C259.138 306.342 244.288 331.417 239.756 338.516H240.422L229.073 358.006C222.844 368.738 217.724 377.866 217.724 378.298C217.724 379.408 231.417 392.484 238.51 398.159C257.815 413.517 278.107 423.077 300.065 427.086C304.814 427.949 309.255 428.196 319.493 428.196C331.582 428.196 333.494 428.073 340.772 426.531C367.109 420.918 391.164 406.855 408.372 386.933C415.527 378.607 417.192 373.549 414.54 367.813C413.923 366.456 400.909 343.943 385.613 317.73C371.738 294.105 360.079 274.003 357.819 270.022Z" fill="url(#paint0_linear_96_2)"/>
<defs>
<linearGradient id="paint0_linear_96_2" x1="0" y1="0" x2="737.716" y2="145.738" gradientUnits="userSpaceOnUse">
<stop stop-color="#07CFDD"/>
<stop offset="1" stop-color="#077DDD"/>
</linearGradient>
</defs>
</svg>
